<svg xmlns="http://www.w3.org/2000/svg" viewBox="0 0 64 64" fill="none">
  <rect width="64" height="64" rx="18" fill="#E8F0FE"/>
  <path d="M18 22.5C18 19.4624 20.4624 17 23.5 17H40.5C43.5376 17 46 19.4624 46 22.5V41.5C46 44.5376 43.5376 47 40.5 47H23.5C20.4624 47 18 44.5376 18 41.5V22.5Z" fill="#1A73E8"/>
  <path d="M27.24 41C24.9133 41 23.04 40.3133 21.62 38.94L24.02 36.06C24.8733 36.86 25.9133 37.26 27.14 37.26C27.94 37.26 28.5533 37.0733 28.98 36.7C29.42 36.3267 29.64 35.8067 29.64 35.14C29.64 33.5533 28.6067 32.76 26.54 32.76H24.78V29.46H26.32C28.1733 29.46 29.1 28.72 29.1 27.24C29.1 25.96 28.3467 25.32 26.84 25.32C25.7067 25.32 24.76 25.6933 24 26.44L21.78 23.38C23.2933 22.0333 25.1867 21.36 27.46 21.36C29.6867 21.36 31.4267 21.8 32.68 22.68C33.9467 23.5467 34.58 24.7867 34.58 26.4C34.58 27.4933 34.2733 28.4333 33.66 29.22C33.0467 29.9933 32.2267 30.5533 31.2 30.9V31.02C32.3867 31.2867 33.3467 31.8333 34.08 32.66C34.8133 33.4733 35.18 34.56 35.18 35.92C35.18 37.7067 34.5067 39.1067 33.16 40.12C31.8267 41.12 29.8533 41.62 27.24 41.62V41Z" fill="white"/>
  <path d="M38.16 41L44.16 21.72H39.82L35.3 37.2H35.16L36.34 29.84L39.08 21.72H35.24L29.24 41H38.16Z" fill="white" opacity="0.94"/>
</svg>
